name ../VV_Laxity/vv_45.mot
datacolumns  10
datarows 58
range   7.00000000 7.57000000
cursor 1.0 1.0 0.0
keys m_key
wrap
enforce_loops no
enforce_constraints no
calc_derivatives -1.000000
event_color 0.000000 0.000000 0.000000
endheader
            time femur_r_force_vx femur_r_force_vy femur_r_force_vz femur_r_force_px femur_r_force_py femur_r_force_pz femur_r_torque_x femur_r_torque_y femur_r_torque_z 
      7.00000000       0.00000000       0.00000000       0.00000000      -0.05123681      -0.49427285       0.00000000      -6.35382291       6.35382291       0.00000000 
      7.01000000       0.00000000       0.00000000       0.00000000      -0.05123681      -0.49427285       0.00000000      -6.36443319       6.36443319       0.00000000 
      7.02000000       0.00000000       0.00000000       0.00000000      -0.05123681      -0.49427285       0.00000000      -6.37497313       6.37497313       0.00000000 
      7.03000000       0.00000000       0.00000000       0.00000000      -0.05123681      -0.49427285       0.00000000      -6.38544246       6.38544246       0.00000000 
      7.04000000       0.00000000       0.00000000       0.00000000      -0.05123681      -0.49427285       0.00000000      -6.39584092       6.39584092       0.00000000 
      7.05000000       0.00000000       0.00000000       0.00000000      -0.05123681      -0.49427285       0.00000000      -6.40616825       6.40616825       0.00000000 
      7.06000000       0.00000000       0.00000000       0.00000000      -0.05123681      -0.49427285       0.00000000      -6.41642421       6.41642421       0.00000000 
      7.07000000       0.00000000       0.00000000       0.00000000      -0.05123681      -0.49427285       0.00000000      -6.42660852       6.42660852       0.00000000 
      7.08000000       0.00000000       0.00000000       0.00000000      -0.05123681      -0.49427285       0.00000000      -6.43672094       6.43672094       0.00000000 
      7.09000000       0.00000000       0.00000000       0.00000000      -0.05123681      -0.49427285       0.00000000      -6.44676122       6.44676122       0.00000000 
      7.10000000       0.00000000       0.00000000       0.00000000      -0.05123681      -0.49427285       0.00000000      -6.45672911       6.45672911       0.00000000 
      7.11000000       0.00000000       0.00000000       0.00000000      -0.05123681      -0.49427285       0.00000000      -6.46662435       6.46662435       0.00000000 
      7.12000000       0.00000000       0.00000000       0.00000000      -0.05123681      -0.49427285       0.00000000      -6.47644671       6.47644671       0.00000000 
      7.13000000       0.00000000       0.00000000       0.00000000      -0.05123681      -0.49427285       0.00000000      -6.48619594       6.48619594       0.00000000 
      7.14000000       0.00000000       0.00000000       0.00000000      -0.05123681      -0.49427285       0.00000000      -6.49587180       6.49587180       0.00000000 
      7.15000000       0.00000000       0.00000000       0.00000000      -0.05123681      -0.49427285       0.00000000      -6.50547404       6.50547404       0.00000000 
      7.16000000       0.00000000       0.00000000       0.00000000      -0.05123681      -0.49427285       0.00000000      -6.51500243       6.51500243       0.00000000 
      7.17000000       0.00000000       0.00000000       0.00000000      -0.05123681      -0.49427285       0.00000000      -6.52445673       6.52445673       0.00000000 
      7.18000000       0.00000000       0.00000000       0.00000000      -0.05123681      -0.49427285       0.00000000      -6.53383670       6.53383670       0.00000000 
      7.19000000       0.00000000       0.00000000       0.00000000      -0.05123681      -0.49427285       0.00000000      -6.54314212       6.54314212       0.00000000 
      7.20000000       0.00000000       0.00000000       0.00000000      -0.05123681      -0.49427285       0.00000000      -6.55237275       6.55237275       0.00000000 
      7.21000000       0.00000000       0.00000000       0.00000000      -0.05123681      -0.49427285       0.00000000      -6.56152836       6.56152836       0.00000000 
      7.22000000       0.00000000       0.00000000       0.00000000      -0.05123681      -0.49427285       0.00000000      -6.57060872       6.57060872       0.00000000 
      7.23000000       0.00000000       0.00000000       0.00000000      -0.05123681      -0.49427285       0.00000000      -6.57961361       6.57961361       0.00000000 
      7.24000000       0.00000000       0.00000000       0.00000000      -0.05123681      -0.49427285       0.00000000      -6.58854281       6.58854281       0.00000000 
      7.25000000       0.00000000       0.00000000       0.00000000      -0.05123681      -0.49427285       0.00000000      -6.59739608       6.59739608       0.00000000 
      7.26000000       0.00000000       0.00000000       0.00000000      -0.05123681      -0.49427285       0.00000000      -6.60617322       6.60617322       0.00000000 
      7.27000000       0.00000000       0.00000000       0.00000000      -0.05123681      -0.49427285       0.00000000      -6.61487400       6.61487400       0.00000000 
      7.28000000       0.00000000       0.00000000       0.00000000      -0.05123681      -0.49427285       0.00000000      -6.62349821       6.62349821       0.00000000 
      7.29000000       0.00000000       0.00000000       0.00000000      -0.05123681      -0.49427285       0.00000000      -6.63204563       6.63204563       0.00000000 
      7.30000000       0.00000000       0.00000000       0.00000000      -0.05123681      -0.49427285       0.00000000      -6.64051606       6.64051606       0.00000000 
      7.31000000       0.00000000       0.00000000       0.00000000      -0.05123681      -0.49427285       0.00000000      -6.64890927       6.64890927       0.00000000 
      7.32000000       0.00000000       0.00000000       0.00000000      -0.05123681      -0.49427285       0.00000000      -6.65722506       6.65722506       0.00000000 
      7.33000000       0.00000000       0.00000000       0.00000000      -0.05123681      -0.49427285       0.00000000      -6.66546322       6.66546322       0.00000000 
      7.34000000       0.00000000       0.00000000       0.00000000      -0.05123681      -0.49427285       0.00000000      -6.67362356       6.67362356       0.00000000 
      7.35000000       0.00000000       0.00000000       0.00000000      -0.05123681      -0.49427285       0.00000000      -6.68170586       6.68170586       0.00000000 
      7.36000000       0.00000000       0.00000000       0.00000000      -0.05123681      -0.49427285       0.00000000      -6.68970992       6.68970992       0.00000000 
      7.37000000       0.00000000       0.00000000       0.00000000      -0.05123681      -0.49427285       0.00000000      -6.69763556       6.69763556       0.00000000 
      7.38000000       0.00000000       0.00000000       0.00000000      -0.05123681      -0.49427285       0.00000000      -6.70548256       6.70548256       0.00000000 
      7.39000000       0.00000000       0.00000000       0.00000000      -0.05123681      -0.49427285       0.00000000      -6.71325073       6.71325073       0.00000000 
      7.40000000       0.00000000       0.00000000       0.00000000      -0.05123681      -0.49427285       0.00000000      -6.72093989       6.72093989       0.00000000 
      7.41000000       0.00000000       0.00000000       0.00000000      -0.05123681      -0.49427285       0.00000000      -6.72854983       6.72854983       0.00000000 
      7.42000000       0.00000000       0.00000000       0.00000000      -0.05123681      -0.49427285       0.00000000      -6.73608038       6.73608038       0.00000000 
      7.43000000       0.00000000       0.00000000       0.00000000      -0.05123681      -0.49427285       0.00000000      -6.74353134       6.74353134       0.00000000 
      7.44000000       0.00000000       0.00000000       0.00000000      -0.05123681      -0.49427285       0.00000000      -6.75090252       6.75090252       0.00000000 
      7.45000000       0.00000000       0.00000000       0.00000000      -0.05123681      -0.49427285       0.00000000      -6.75819375       6.75819375       0.00000000 
      7.46000000       0.00000000       0.00000000       0.00000000      -0.05123681      -0.49427285       0.00000000      -6.76540485       6.76540485       0.00000000 
      7.47000000       0.00000000       0.00000000       0.00000000      -0.05123681      -0.49427285       0.00000000      -6.77253562       6.77253562       0.00000000 
      7.48000000       0.00000000       0.00000000       0.00000000      -0.05123681      -0.49427285       0.00000000      -6.77958591       6.77958591       0.00000000 
      7.49000000       0.00000000       0.00000000       0.00000000      -0.05123681      -0.49427285       0.00000000      -6.78655552       6.78655552       0.00000000 
      7.50000000       0.00000000       0.00000000       0.00000000      -0.05123681      -0.49427285       0.00000000      -6.79344430       6.79344430       0.00000000 
      7.51000000       0.00000000       0.00000000       0.00000000      -0.05123681      -0.49427285       0.00000000      -6.80025206       6.80025206       0.00000000 
      7.52000000       0.00000000       0.00000000       0.00000000      -0.05123681      -0.49427285       0.00000000      -6.80697863       6.80697863       0.00000000 
      7.53000000       0.00000000       0.00000000       0.00000000      -0.05123681      -0.49427285       0.00000000      -6.81362386       6.81362386       0.00000000 
      7.54000000       0.00000000       0.00000000       0.00000000      -0.05123681      -0.49427285       0.00000000      -6.82018757       6.82018757       0.00000000 
      7.55000000       0.00000000       0.00000000       0.00000000      -0.05123681      -0.49427285       0.00000000      -6.82666961       6.82666961       0.00000000 
      7.56000000       0.00000000       0.00000000       0.00000000      -0.05123681      -0.49427285       0.00000000      -6.83306980       6.83306980       0.00000000 
      7.57000000       0.00000000       0.00000000       0.00000000      -0.05123681      -0.49427285       0.00000000      -6.83938800       6.83938800       0.00000000 
